<mxfile host="app.diagrams.net" modified="2022-06-09T02:50:38.670Z" agent="5.0 (Windows NT 10.0; Win64; x64) AppleWebKit/537.36 (KHTML, like Gecko) Chrome/102.0.5005.63 Safari/537.36" etag="SEZCvELcU3bRBiTJVqDU" version="19.0.2" type="github">
  <diagram id="vqAaPXSRMTFe7XTVg5F0" name="第1頁">
    <mxGraphModel dx="1673" dy="896" grid="1" gridSize="10" guides="1" tooltips="1" connect="1" arrows="1" fold="1" page="1" pageScale="1" pageWidth="827" pageHeight="1169" math="0" shadow="0">
      <root>
        <mxCell id="0" />
        <mxCell id="1" parent="0" />
        <mxCell id="duV51yl1zNzty06JCO2b-62" value="" style="strokeWidth=2;html=1;shape=mxgraph.flowchart.annotation_2;align=left;labelPosition=right;pointerEvents=1;direction=north;fillColor=none;" parent="1" vertex="1">
          <mxGeometry x="370" y="632.6" width="380" height="40" as="geometry" />
        </mxCell>
        <mxCell id="duV51yl1zNzty06JCO2b-60" value="" style="strokeWidth=2;html=1;shape=mxgraph.flowchart.annotation_2;align=left;labelPosition=right;pointerEvents=1;direction=south;" parent="1" vertex="1">
          <mxGeometry x="180" y="247" width="380" height="40" as="geometry" />
        </mxCell>
        <mxCell id="duV51yl1zNzty06JCO2b-92" value="" style="endArrow=open;html=1;rounded=0;strokeColor=#000000;strokeWidth=2;dashed=1;endFill=0;entryX=0;entryY=0.5;entryDx=0;entryDy=0;exitX=1;exitY=0.5;exitDx=0;exitDy=0;" parent="1" edge="1">
          <mxGeometry width="50" height="50" relative="1" as="geometry">
            <mxPoint x="281" y="374" as="sourcePoint" />
            <mxPoint x="480" y="374" as="targetPoint" />
          </mxGeometry>
        </mxCell>
        <mxCell id="duV51yl1zNzty06JCO2b-57" value="" style="strokeWidth=2;html=1;shape=mxgraph.flowchart.annotation_2;align=left;labelPosition=right;pointerEvents=1;direction=south;" parent="1" vertex="1">
          <mxGeometry x="368.82" y="441.6" width="380" height="40" as="geometry" />
        </mxCell>
        <mxCell id="duV51yl1zNzty06JCO2b-6" value="DITCameraTestApp" style="swimlane;fontStyle=1;align=center;verticalAlign=top;childLayout=stackLayout;horizontal=1;startSize=26;horizontalStack=0;resizeParent=1;resizeParentMax=0;resizeLast=0;collapsible=1;marginBottom=0;" parent="1" vertex="1">
          <mxGeometry x="290" y="160" width="160" height="86" as="geometry" />
        </mxCell>
        <mxCell id="duV51yl1zNzty06JCO2b-7" value="+ field: type" style="text;strokeColor=none;fillColor=none;align=left;verticalAlign=top;spacingLeft=4;spacingRight=4;overflow=hidden;rotatable=0;points=[[0,0.5],[1,0.5]];portConstraint=eastwest;" parent="duV51yl1zNzty06JCO2b-6" vertex="1">
          <mxGeometry y="26" width="160" height="26" as="geometry" />
        </mxCell>
        <mxCell id="duV51yl1zNzty06JCO2b-8" value="" style="line;strokeWidth=1;fillColor=none;align=left;verticalAlign=middle;spacingTop=-1;spacingLeft=3;spacingRight=3;rotatable=0;labelPosition=right;points=[];portConstraint=eastwest;" parent="duV51yl1zNzty06JCO2b-6" vertex="1">
          <mxGeometry y="52" width="160" height="8" as="geometry" />
        </mxCell>
        <mxCell id="duV51yl1zNzty06JCO2b-9" value="+ method(type): type" style="text;strokeColor=none;fillColor=none;align=left;verticalAlign=top;spacingLeft=4;spacingRight=4;overflow=hidden;rotatable=0;points=[[0,0.5],[1,0.5]];portConstraint=eastwest;" parent="duV51yl1zNzty06JCO2b-6" vertex="1">
          <mxGeometry y="60" width="160" height="26" as="geometry" />
        </mxCell>
        <mxCell id="duV51yl1zNzty06JCO2b-11" value="FileOperate" style="swimlane;fontStyle=1;align=center;verticalAlign=top;childLayout=stackLayout;horizontal=1;startSize=26;horizontalStack=0;resizeParent=1;resizeParentMax=0;resizeLast=0;collapsible=1;marginBottom=0;" parent="1" vertex="1">
          <mxGeometry x="81" y="301" width="200" height="268" as="geometry" />
        </mxCell>
        <mxCell id="duV51yl1zNzty06JCO2b-12" value="+ defectSpec: struct" style="text;strokeColor=none;fillColor=none;align=left;verticalAlign=top;spacingLeft=4;spacingRight=4;overflow=hidden;rotatable=0;points=[[0,0.5],[1,0.5]];portConstraint=eastwest;" parent="duV51yl1zNzty06JCO2b-11" vertex="1">
          <mxGeometry y="26" width="200" height="26" as="geometry" />
        </mxCell>
        <mxCell id="7NtVMurno9GITJwTKm-7-24" value="+ timeInformation: struct" style="text;strokeColor=none;fillColor=none;align=left;verticalAlign=top;spacingLeft=4;spacingRight=4;overflow=hidden;rotatable=0;points=[[0,0.5],[1,0.5]];portConstraint=eastwest;" vertex="1" parent="duV51yl1zNzty06JCO2b-11">
          <mxGeometry y="52" width="200" height="26" as="geometry" />
        </mxCell>
        <mxCell id="7NtVMurno9GITJwTKm-7-25" value="+ recordInformation: struct" style="text;strokeColor=none;fillColor=none;align=left;verticalAlign=top;spacingLeft=4;spacingRight=4;overflow=hidden;rotatable=0;points=[[0,0.5],[1,0.5]];portConstraint=eastwest;" vertex="1" parent="duV51yl1zNzty06JCO2b-11">
          <mxGeometry y="78" width="200" height="26" as="geometry" />
        </mxCell>
        <mxCell id="duV51yl1zNzty06JCO2b-13" value="" style="line;strokeWidth=1;fillColor=none;align=left;verticalAlign=middle;spacingTop=-1;spacingLeft=3;spacingRight=3;rotatable=0;labelPosition=right;points=[];portConstraint=eastwest;" parent="duV51yl1zNzty06JCO2b-11" vertex="1">
          <mxGeometry y="104" width="200" height="8" as="geometry" />
        </mxCell>
        <mxCell id="duV51yl1zNzty06JCO2b-14" value="+ getTime()" style="text;strokeColor=none;fillColor=none;align=left;verticalAlign=top;spacingLeft=4;spacingRight=4;overflow=hidden;rotatable=0;points=[[0,0.5],[1,0.5]];portConstraint=eastwest;" parent="duV51yl1zNzty06JCO2b-11" vertex="1">
          <mxGeometry y="112" width="200" height="26" as="geometry" />
        </mxCell>
        <mxCell id="7NtVMurno9GITJwTKm-7-26" value="+ createFile(string)" style="text;strokeColor=none;fillColor=none;align=left;verticalAlign=top;spacingLeft=4;spacingRight=4;overflow=hidden;rotatable=0;points=[[0,0.5],[1,0.5]];portConstraint=eastwest;" vertex="1" parent="duV51yl1zNzty06JCO2b-11">
          <mxGeometry y="138" width="200" height="26" as="geometry" />
        </mxCell>
        <mxCell id="7NtVMurno9GITJwTKm-7-27" value="+ readSpec(string)" style="text;strokeColor=none;fillColor=none;align=left;verticalAlign=top;spacingLeft=4;spacingRight=4;overflow=hidden;rotatable=0;points=[[0,0.5],[1,0.5]];portConstraint=eastwest;" vertex="1" parent="duV51yl1zNzty06JCO2b-11">
          <mxGeometry y="164" width="200" height="26" as="geometry" />
        </mxCell>
        <mxCell id="7NtVMurno9GITJwTKm-7-28" value="+ split(string, char): vector&lt;string&gt;" style="text;strokeColor=none;fillColor=none;align=left;verticalAlign=top;spacingLeft=4;spacingRight=4;overflow=hidden;rotatable=0;points=[[0,0.5],[1,0.5]];portConstraint=eastwest;" vertex="1" parent="duV51yl1zNzty06JCO2b-11">
          <mxGeometry y="190" width="200" height="26" as="geometry" />
        </mxCell>
        <mxCell id="7NtVMurno9GITJwTKm-7-29" value="+ writeResult()" style="text;strokeColor=none;fillColor=none;align=left;verticalAlign=top;spacingLeft=4;spacingRight=4;overflow=hidden;rotatable=0;points=[[0,0.5],[1,0.5]];portConstraint=eastwest;" vertex="1" parent="duV51yl1zNzty06JCO2b-11">
          <mxGeometry y="216" width="200" height="26" as="geometry" />
        </mxCell>
        <mxCell id="7NtVMurno9GITJwTKm-7-30" value="+ writeError(string, string)" style="text;strokeColor=none;fillColor=none;align=left;verticalAlign=top;spacingLeft=4;spacingRight=4;overflow=hidden;rotatable=0;points=[[0,0.5],[1,0.5]];portConstraint=eastwest;" vertex="1" parent="duV51yl1zNzty06JCO2b-11">
          <mxGeometry y="242" width="200" height="26" as="geometry" />
        </mxCell>
        <mxCell id="duV51yl1zNzty06JCO2b-24" value="Flare" style="swimlane;fontStyle=1;align=center;verticalAlign=top;childLayout=stackLayout;horizontal=1;startSize=26;horizontalStack=0;resizeParent=1;resizeParentMax=0;resizeLast=0;collapsible=1;marginBottom=0;" parent="1" vertex="1">
          <mxGeometry x="330" y="494" width="130" height="138" as="geometry" />
        </mxCell>
        <mxCell id="duV51yl1zNzty06JCO2b-25" value="+ judgeResult: string" style="text;strokeColor=none;fillColor=none;align=left;verticalAlign=top;spacingLeft=4;spacingRight=4;overflow=hidden;rotatable=0;points=[[0,0.5],[1,0.5]];portConstraint=eastwest;" parent="duV51yl1zNzty06JCO2b-24" vertex="1">
          <mxGeometry y="26" width="130" height="26" as="geometry" />
        </mxCell>
        <mxCell id="duV51yl1zNzty06JCO2b-26" value="" style="line;strokeWidth=1;fillColor=none;align=left;verticalAlign=middle;spacingTop=-1;spacingLeft=3;spacingRight=3;rotatable=0;labelPosition=right;points=[];portConstraint=eastwest;" parent="duV51yl1zNzty06JCO2b-24" vertex="1">
          <mxGeometry y="52" width="130" height="8" as="geometry" />
        </mxCell>
        <mxCell id="duV51yl1zNzty06JCO2b-27" value="+ Execute(Mat, file)" style="text;strokeColor=none;fillColor=none;align=left;verticalAlign=top;spacingLeft=4;spacingRight=4;overflow=hidden;rotatable=0;points=[[0,0.5],[1,0.5]];portConstraint=eastwest;" parent="duV51yl1zNzty06JCO2b-24" vertex="1">
          <mxGeometry y="60" width="130" height="26" as="geometry" />
        </mxCell>
        <mxCell id="7NtVMurno9GITJwTKm-7-10" value="+ showDefect(Mat)" style="text;strokeColor=none;fillColor=none;align=left;verticalAlign=top;spacingLeft=4;spacingRight=4;overflow=hidden;rotatable=0;points=[[0,0.5],[1,0.5]];portConstraint=eastwest;" vertex="1" parent="duV51yl1zNzty06JCO2b-24">
          <mxGeometry y="86" width="130" height="26" as="geometry" />
        </mxCell>
        <mxCell id="7NtVMurno9GITJwTKm-7-16" value="+ write2file(file)" style="text;strokeColor=none;fillColor=none;align=left;verticalAlign=top;spacingLeft=4;spacingRight=4;overflow=hidden;rotatable=0;points=[[0,0.5],[1,0.5]];portConstraint=eastwest;" vertex="1" parent="duV51yl1zNzty06JCO2b-24">
          <mxGeometry y="112" width="130" height="26" as="geometry" />
        </mxCell>
        <mxCell id="duV51yl1zNzty06JCO2b-32" value="Blemish" style="swimlane;fontStyle=1;align=center;verticalAlign=top;childLayout=stackLayout;horizontal=1;startSize=26;horizontalStack=0;resizeParent=1;resizeParentMax=0;resizeLast=0;collapsible=1;marginBottom=0;" parent="1" vertex="1">
          <mxGeometry x="495" y="494" width="130" height="138" as="geometry" />
        </mxCell>
        <mxCell id="duV51yl1zNzty06JCO2b-33" value="+ judgeResult: string" style="text;strokeColor=none;fillColor=none;align=left;verticalAlign=top;spacingLeft=4;spacingRight=4;overflow=hidden;rotatable=0;points=[[0,0.5],[1,0.5]];portConstraint=eastwest;" parent="duV51yl1zNzty06JCO2b-32" vertex="1">
          <mxGeometry y="26" width="130" height="26" as="geometry" />
        </mxCell>
        <mxCell id="duV51yl1zNzty06JCO2b-34" value="" style="line;strokeWidth=1;fillColor=none;align=left;verticalAlign=middle;spacingTop=-1;spacingLeft=3;spacingRight=3;rotatable=0;labelPosition=right;points=[];portConstraint=eastwest;" parent="duV51yl1zNzty06JCO2b-32" vertex="1">
          <mxGeometry y="52" width="130" height="8" as="geometry" />
        </mxCell>
        <mxCell id="duV51yl1zNzty06JCO2b-35" value="+ Execute(Mat, file)" style="text;strokeColor=none;fillColor=none;align=left;verticalAlign=top;spacingLeft=4;spacingRight=4;overflow=hidden;rotatable=0;points=[[0,0.5],[1,0.5]];portConstraint=eastwest;" parent="duV51yl1zNzty06JCO2b-32" vertex="1">
          <mxGeometry y="60" width="130" height="26" as="geometry" />
        </mxCell>
        <mxCell id="7NtVMurno9GITJwTKm-7-18" value="+ showDefect(Mat)" style="text;strokeColor=none;fillColor=none;align=left;verticalAlign=top;spacingLeft=4;spacingRight=4;overflow=hidden;rotatable=0;points=[[0,0.5],[1,0.5]];portConstraint=eastwest;" vertex="1" parent="duV51yl1zNzty06JCO2b-32">
          <mxGeometry y="86" width="130" height="26" as="geometry" />
        </mxCell>
        <mxCell id="7NtVMurno9GITJwTKm-7-19" value="+ write2file(file)" style="text;strokeColor=none;fillColor=none;align=left;verticalAlign=top;spacingLeft=4;spacingRight=4;overflow=hidden;rotatable=0;points=[[0,0.5],[1,0.5]];portConstraint=eastwest;" vertex="1" parent="duV51yl1zNzty06JCO2b-32">
          <mxGeometry y="112" width="130" height="26" as="geometry" />
        </mxCell>
        <mxCell id="duV51yl1zNzty06JCO2b-36" value="Shading" style="swimlane;fontStyle=1;align=center;verticalAlign=top;childLayout=stackLayout;horizontal=1;startSize=26;horizontalStack=0;resizeParent=1;resizeParentMax=0;resizeLast=0;collapsible=1;marginBottom=0;" parent="1" vertex="1">
          <mxGeometry x="660" y="494" width="130" height="138" as="geometry" />
        </mxCell>
        <mxCell id="duV51yl1zNzty06JCO2b-37" value="+ judgeResult: string" style="text;strokeColor=none;fillColor=none;align=left;verticalAlign=top;spacingLeft=4;spacingRight=4;overflow=hidden;rotatable=0;points=[[0,0.5],[1,0.5]];portConstraint=eastwest;" parent="duV51yl1zNzty06JCO2b-36" vertex="1">
          <mxGeometry y="26" width="130" height="26" as="geometry" />
        </mxCell>
        <mxCell id="duV51yl1zNzty06JCO2b-38" value="" style="line;strokeWidth=1;fillColor=none;align=left;verticalAlign=middle;spacingTop=-1;spacingLeft=3;spacingRight=3;rotatable=0;labelPosition=right;points=[];portConstraint=eastwest;" parent="duV51yl1zNzty06JCO2b-36" vertex="1">
          <mxGeometry y="52" width="130" height="8" as="geometry" />
        </mxCell>
        <mxCell id="duV51yl1zNzty06JCO2b-39" value="+ Execute(Mat, file)" style="text;strokeColor=none;fillColor=none;align=left;verticalAlign=top;spacingLeft=4;spacingRight=4;overflow=hidden;rotatable=0;points=[[0,0.5],[1,0.5]];portConstraint=eastwest;" parent="duV51yl1zNzty06JCO2b-36" vertex="1">
          <mxGeometry y="60" width="130" height="26" as="geometry" />
        </mxCell>
        <mxCell id="7NtVMurno9GITJwTKm-7-20" value="+ showDefect(Mat)" style="text;strokeColor=none;fillColor=none;align=left;verticalAlign=top;spacingLeft=4;spacingRight=4;overflow=hidden;rotatable=0;points=[[0,0.5],[1,0.5]];portConstraint=eastwest;" vertex="1" parent="duV51yl1zNzty06JCO2b-36">
          <mxGeometry y="86" width="130" height="26" as="geometry" />
        </mxCell>
        <mxCell id="7NtVMurno9GITJwTKm-7-21" value="+ write2file(file)" style="text;strokeColor=none;fillColor=none;align=left;verticalAlign=top;spacingLeft=4;spacingRight=4;overflow=hidden;rotatable=0;points=[[0,0.5],[1,0.5]];portConstraint=eastwest;" vertex="1" parent="duV51yl1zNzty06JCO2b-36">
          <mxGeometry y="112" width="130" height="26" as="geometry" />
        </mxCell>
        <mxCell id="duV51yl1zNzty06JCO2b-59" value="" style="endArrow=none;html=1;rounded=0;strokeWidth=2;entryX=0.168;entryY=0.5;entryDx=0;entryDy=0;entryPerimeter=0;" parent="1" edge="1">
          <mxGeometry width="50" height="50" relative="1" as="geometry">
            <mxPoint x="558.6999999999998" y="481.6" as="sourcePoint" />
            <mxPoint x="558.8199999999999" y="439.9999999999999" as="targetPoint" />
          </mxGeometry>
        </mxCell>
        <mxCell id="duV51yl1zNzty06JCO2b-64" value="" style="endArrow=none;html=1;rounded=0;strokeWidth=2;entryX=0.168;entryY=0.5;entryDx=0;entryDy=0;entryPerimeter=0;" parent="1" edge="1">
          <mxGeometry width="50" height="50" relative="1" as="geometry">
            <mxPoint x="560" y="672.6" as="sourcePoint" />
            <mxPoint x="559.8299999999999" y="631.9999999999999" as="targetPoint" />
          </mxGeometry>
        </mxCell>
        <mxCell id="duV51yl1zNzty06JCO2b-75" value="" style="endArrow=block;html=1;rounded=0;strokeColor=#000000;strokeWidth=2;endFill=0;" parent="1" edge="1">
          <mxGeometry width="50" height="50" relative="1" as="geometry">
            <mxPoint x="559.9200000000001" y="662.6" as="sourcePoint" />
            <mxPoint x="559.9200000000001" y="682.6" as="targetPoint" />
          </mxGeometry>
        </mxCell>
        <mxCell id="duV51yl1zNzty06JCO2b-76" value="ImageOperate" style="swimlane;fontStyle=1;align=center;verticalAlign=top;childLayout=stackLayout;horizontal=1;startSize=26;horizontalStack=0;resizeParent=1;resizeParentMax=0;resizeLast=0;collapsible=1;marginBottom=0;fillColor=none;" parent="1" vertex="1">
          <mxGeometry x="480" y="682" width="160" height="138" as="geometry">
            <mxRectangle x="510" y="450" width="100" height="26" as="alternateBounds" />
          </mxGeometry>
        </mxCell>
        <mxCell id="duV51yl1zNzty06JCO2b-77" value="+ ImgProperty: struct" style="text;strokeColor=none;fillColor=none;align=left;verticalAlign=top;spacingLeft=4;spacingRight=4;overflow=hidden;rotatable=0;points=[[0,0.5],[1,0.5]];portConstraint=eastwest;" parent="duV51yl1zNzty06JCO2b-76" vertex="1">
          <mxGeometry y="26" width="160" height="26" as="geometry" />
        </mxCell>
        <mxCell id="duV51yl1zNzty06JCO2b-78" value="" style="line;strokeWidth=1;fillColor=none;align=left;verticalAlign=middle;spacingTop=-1;spacingLeft=3;spacingRight=3;rotatable=0;labelPosition=right;points=[];portConstraint=eastwest;" parent="duV51yl1zNzty06JCO2b-76" vertex="1">
          <mxGeometry y="52" width="160" height="8" as="geometry" />
        </mxCell>
        <mxCell id="duV51yl1zNzty06JCO2b-79" value="+ InvertImage(Mat): Mat" style="text;strokeColor=none;fillColor=none;align=left;verticalAlign=top;spacingLeft=4;spacingRight=4;overflow=hidden;rotatable=0;points=[[0,0.5],[1,0.5]];portConstraint=eastwest;" parent="duV51yl1zNzty06JCO2b-76" vertex="1">
          <mxGeometry y="60" width="160" height="26" as="geometry" />
        </mxCell>
        <mxCell id="7NtVMurno9GITJwTKm-7-6" value="+ HistEqualize(Mat): Mat" style="text;strokeColor=none;fillColor=none;align=left;verticalAlign=top;spacingLeft=4;spacingRight=4;overflow=hidden;rotatable=0;points=[[0,0.5],[1,0.5]];portConstraint=eastwest;" vertex="1" parent="duV51yl1zNzty06JCO2b-76">
          <mxGeometry y="86" width="160" height="26" as="geometry" />
        </mxCell>
        <mxCell id="7NtVMurno9GITJwTKm-7-7" value="+ MorphRoI(Mat): Mat" style="text;strokeColor=none;fillColor=none;align=left;verticalAlign=top;spacingLeft=4;spacingRight=4;overflow=hidden;rotatable=0;points=[[0,0.5],[1,0.5]];portConstraint=eastwest;" vertex="1" parent="duV51yl1zNzty06JCO2b-76">
          <mxGeometry y="112" width="160" height="26" as="geometry" />
        </mxCell>
        <mxCell id="duV51yl1zNzty06JCO2b-87" value="" style="endArrow=classic;html=1;rounded=0;strokeColor=#000000;strokeWidth=2;startArrow=none;" parent="1" source="duV51yl1zNzty06JCO2b-20" edge="1">
          <mxGeometry width="50" height="50" relative="1" as="geometry">
            <mxPoint x="560" y="271" as="sourcePoint" />
            <mxPoint x="560" y="301" as="targetPoint" />
          </mxGeometry>
        </mxCell>
        <mxCell id="duV51yl1zNzty06JCO2b-85" value="" style="endArrow=classic;html=1;rounded=0;strokeColor=#000000;strokeWidth=2;" parent="1" edge="1">
          <mxGeometry width="50" height="50" relative="1" as="geometry">
            <mxPoint x="179.99999999999997" y="271" as="sourcePoint" />
            <mxPoint x="179.99999999999997" y="301" as="targetPoint" />
          </mxGeometry>
        </mxCell>
        <mxCell id="duV51yl1zNzty06JCO2b-20" value="InspectOperate" style="swimlane;fontStyle=1;align=center;verticalAlign=top;childLayout=stackLayout;horizontal=1;startSize=26;horizontalStack=0;resizeParent=1;resizeParentMax=0;resizeLast=0;collapsible=1;marginBottom=0;" parent="1" vertex="1">
          <mxGeometry x="480" y="301" width="160" height="138" as="geometry" />
        </mxCell>
        <mxCell id="duV51yl1zNzty06JCO2b-21" value="+ file: FileOperate" style="text;strokeColor=none;fillColor=none;align=left;verticalAlign=top;spacingLeft=4;spacingRight=4;overflow=hidden;rotatable=0;points=[[0,0.5],[1,0.5]];portConstraint=eastwest;" parent="duV51yl1zNzty06JCO2b-20" vertex="1">
          <mxGeometry y="26" width="160" height="26" as="geometry" />
        </mxCell>
        <mxCell id="duV51yl1zNzty06JCO2b-22" value="" style="line;strokeWidth=1;fillColor=none;align=left;verticalAlign=middle;spacingTop=-1;spacingLeft=3;spacingRight=3;rotatable=0;labelPosition=right;points=[];portConstraint=eastwest;" parent="duV51yl1zNzty06JCO2b-20" vertex="1">
          <mxGeometry y="52" width="160" height="8" as="geometry" />
        </mxCell>
        <mxCell id="duV51yl1zNzty06JCO2b-23" value="+ shading(Mat, file)" style="text;strokeColor=none;fillColor=none;align=left;verticalAlign=top;spacingLeft=4;spacingRight=4;overflow=hidden;rotatable=0;points=[[0,0.5],[1,0.5]];portConstraint=eastwest;" parent="duV51yl1zNzty06JCO2b-20" vertex="1">
          <mxGeometry y="60" width="160" height="26" as="geometry" />
        </mxCell>
        <mxCell id="7NtVMurno9GITJwTKm-7-23" value="+ blemish(Mat, file)" style="text;strokeColor=none;fillColor=none;align=left;verticalAlign=top;spacingLeft=4;spacingRight=4;overflow=hidden;rotatable=0;points=[[0,0.5],[1,0.5]];portConstraint=eastwest;" vertex="1" parent="duV51yl1zNzty06JCO2b-20">
          <mxGeometry y="86" width="160" height="26" as="geometry" />
        </mxCell>
        <mxCell id="7NtVMurno9GITJwTKm-7-22" value="+ flare(Mat, file)" style="text;strokeColor=none;fillColor=none;align=left;verticalAlign=top;spacingLeft=4;spacingRight=4;overflow=hidden;rotatable=0;points=[[0,0.5],[1,0.5]];portConstraint=eastwest;" vertex="1" parent="duV51yl1zNzty06JCO2b-20">
          <mxGeometry y="112" width="160" height="26" as="geometry" />
        </mxCell>
        <mxCell id="duV51yl1zNzty06JCO2b-88" value="" style="endArrow=none;html=1;rounded=0;strokeColor=#000000;strokeWidth=2;" parent="1" edge="1">
          <mxGeometry width="50" height="50" relative="1" as="geometry">
            <mxPoint x="560" y="271" as="sourcePoint" />
            <mxPoint x="560" y="291" as="targetPoint" />
          </mxGeometry>
        </mxCell>
        <mxCell id="duV51yl1zNzty06JCO2b-89" value="" style="endArrow=classic;html=1;rounded=0;strokeColor=#000000;strokeWidth=2;" parent="1" edge="1">
          <mxGeometry width="50" height="50" relative="1" as="geometry">
            <mxPoint x="748.8199999999999" y="481.6" as="sourcePoint" />
            <mxPoint x="748.8199999999999" y="491.6" as="targetPoint" />
          </mxGeometry>
        </mxCell>
        <mxCell id="duV51yl1zNzty06JCO2b-90" value="" style="endArrow=classic;html=1;rounded=0;strokeColor=#000000;strokeWidth=2;" parent="1" edge="1">
          <mxGeometry width="50" height="50" relative="1" as="geometry">
            <mxPoint x="558.7" y="481.6" as="sourcePoint" />
            <mxPoint x="558.7" y="491.6" as="targetPoint" />
          </mxGeometry>
        </mxCell>
        <mxCell id="duV51yl1zNzty06JCO2b-91" value="" style="endArrow=classic;html=1;rounded=0;strokeColor=#000000;strokeWidth=2;" parent="1" edge="1">
          <mxGeometry width="50" height="50" relative="1" as="geometry">
            <mxPoint x="368.82" y="481.6" as="sourcePoint" />
            <mxPoint x="368.82" y="491.6" as="targetPoint" />
          </mxGeometry>
        </mxCell>
        <mxCell id="duV51yl1zNzty06JCO2b-95" value="" style="endArrow=classic;html=1;rounded=0;strokeColor=#000000;strokeWidth=2;" parent="1" edge="1">
          <mxGeometry width="50" height="50" relative="1" as="geometry">
            <mxPoint x="559.8199999999999" y="291.6" as="sourcePoint" />
            <mxPoint x="559.8199999999999" y="301.6" as="targetPoint" />
          </mxGeometry>
        </mxCell>
      </root>
    </mxGraphModel>
  </diagram>
</mxfile>
